# xmcd
#
# Track frame offsets: 
#        150
#        45778
#        80578
#        120408
#        162430
#        194240
#        227465
#
# Disc length: 3203 seconds
#
# Revision: 3
# Processed by: cddbd v1.5.2PL0 Copyright (c) Steve Scherf et al.
# Submitted via: ExactAudioCopy v1.3
#
DISCID=4f0c8107
DTITLE=Cedar Walton - Pit Inn [EW-7009]
DYEAR=1975
DGENRE=Jazz
TTITLE0=Suite Sunday
TTITLE1=Con Alma
TTITLE2=Without A Song
TTITLE3=Suntory Blues
TTITLE4='Round Midnight
TTITLE5=Fantasy In "D"
TTITLE6=Bleeker St. Theme
EXTD=YEAR: 1974
EXTT0=
EXTT1=
EXTT2=
EXTT3=
EXTT4=
EXTT5=
EXTT6=
PLAYORDER=
